<svg width="20" height="20" viewBox="0 0 20 20" fill="none" xmlns="http://www.w3.org/2000/svg">
<circle cx="10" cy="10" r="9.25" stroke="#C9393B" stroke-width="1.5"/>
<path d="M14.5608 13.5003C14.8738 13.8132 14.8901 14.3044 14.5972 14.5973C14.3043 14.8902 13.8131 14.8739 13.5002 14.5609L5.56657 6.62734C5.2536 6.31437 5.23732 5.82322 5.53022 5.53033C5.82311 5.23744 6.31426 5.25371 6.62723 5.56668L14.5608 13.5003Z" fill="#C9393B"/>
<path d="M13.5003 5.56662C13.8132 5.25365 14.3044 5.23738 14.5973 5.53027C14.8902 5.82316 14.8739 6.31431 14.5609 6.62728L6.62734 14.5609C6.31437 14.8738 5.82322 14.8901 5.53033 14.5972C5.23744 14.3043 5.25371 13.8132 5.56668 13.5002L13.5003 5.56662Z" fill="#C9393B"/>
</svg>
