<svg width="20" height="20" viewBox="0 0 20 20" fill="none" xmlns="http://www.w3.org/2000/svg">
<path d="M8.22075 15.4C9.1 17.65 11.0653 19 13.3135 19C14.3273 19 15.3412 18.7366 16.2229 18.2098L19 18.9561L18.2065 16.1902C18.7355 15.3122 19 14.3024 19 13.2927C19 11.0976 17.65 9.1 15.4 8.2M8.22075 15.4C12.1631 15.4 15.4 12.1538 15.4 8.2M8.22075 15.4C6.93429 15.4 5.68934 15.0671 4.56888 14.4012L1.083 15.3584L2.03746 11.8624C1.33199 10.7803 1 9.49017 1 8.2C1 4.24624 4.23689 1 8.17925 1C12.1216 1 15.4 4.24624 15.4 8.2M6.4 5.67024C6.77834 4.41545 9.33216 4.08084 9.89968 5.67024C10.5145 7.5106 8.10255 8.33704 8.10255 9.55M8.2 11.8V12.25" stroke="#102C3D" stroke-width="1.5" stroke-linecap="round" stroke-linejoin="round"/>
</svg>
