<svg width="20" height="20" viewBox="0 0 20 20" fill="none" xmlns="http://www.w3.org/2000/svg">
<path d="M3.69964 16.3C4.54529 13.7392 7.20971 11.6076 10 11.6076C12.7903 11.6076 15.454 13.7392 16.2996 16.3M19 10C19 14.9706 14.9706 19 10 19C5.02944 19 1 14.9706 1 10C1 5.02944 5.02944 1 10 1C14.9706 1 19 5.02944 19 10ZM13.0176 8.57332C13.0176 10.2636 11.6601 11.6082 10.001 11.6082C8.37955 11.6082 7.02208 10.2252 7.02208 8.57332C7.02208 6.88299 8.37955 5.5 10.001 5.5C11.6601 5.5 13.0176 6.88299 13.0176 8.57332Z" stroke="#102C3D" stroke-width="1.5" stroke-linecap="round"/>
</svg>
