<svg width="22" height="20" viewBox="0 0 22 20" fill="none" xmlns="http://www.w3.org/2000/svg">
<path d="M15.75 18H20.75V16C20.75 14.3431 19.4069 13 17.75 13C16.7944 13 15.9431 13.4468 15.3938 14.1429M15.75 18H5.75M15.75 18V16C15.75 15.3438 15.6236 14.717 15.3938 14.1429M5.75 18H0.75V16C0.75 14.3431 2.09315 13 3.75 13C4.70561 13 5.55686 13.4468 6.10625 14.1429M5.75 18V16C5.75 15.3438 5.87642 14.717 6.10625 14.1429M6.10625 14.1429C6.8435 12.301 8.64482 11 10.75 11C12.8552 11 14.6565 12.301 15.3938 14.1429M13.75 5C13.75 6.65685 12.4069 8 10.75 8C9.0931 8 7.75 6.65685 7.75 5C7.75 3.34315 9.0931 2 10.75 2C12.4069 2 13.75 3.34315 13.75 5ZM19.75 8C19.75 9.1046 18.8546 10 17.75 10C16.6454 10 15.75 9.1046 15.75 8C15.75 6.89543 16.6454 6 17.75 6C18.8546 6 19.75 6.89543 19.75 8ZM5.75 8C5.75 9.1046 4.85457 10 3.75 10C2.64543 10 1.75 9.1046 1.75 8C1.75 6.89543 2.64543 6 3.75 6C4.85457 6 5.75 6.89543 5.75 8Z" stroke="#102C3D" stroke-width="1.5" stroke-linecap="round" stroke-linejoin="round"/>
</svg>
