<svg width="112" height="112" viewBox="0 0 112 112" fill="none" xmlns="http://www.w3.org/2000/svg">
<path fill-rule="evenodd" clip-rule="evenodd" d="M23.4309 41.4411C17.1176 34.4612 18.2702 29.2198 21.5186 26.4575C28.5457 20.4885 34.1517 26.8052 36.6665 33.3537C38.9587 39.2712 40.596 47.5196 42.4821 56.4119C44.6629 66.6887 47.8982 82.7412 54.4538 94.9754C60.4592 106.192 69.5821 114.66 83.191 111.228C93.0997 108.723 101.384 100.732 105.019 92.6187C94.9269 102.599 85.1426 107.538 75.8364 104.531C66.4975 101.505 61.7625 93.6361 59.0774 84.8919C54.7419 70.7453 53.3077 50.3721 49.3259 35.9615C47.9636 31.0227 45.7632 25.5238 42.2725 21.4157C26.1815 2.43979 -3.859 26.9468 15.5065 48.3696L21.4072 54.9052L14.7665 60.7068C5.15904 69.1033 4.28802 83.7006 12.8214 93.1403C21.3548 102.586 36.2016 103.443 45.8025 95.0462L49.4765 91.8396C47.9505 88.4591 46.6407 84.9498 45.4947 81.3697L38.7622 87.255C33.5295 91.8203 25.4022 91.3502 20.7523 86.2119C16.1025 81.0671 16.5806 73.0698 21.8133 68.5045L36.3849 55.768L23.4309 41.4411Z" fill="#31999A"/>
<path d="M101.493 103.827L94.7114 97.7136C94.5167 97.5413 94.3768 97.3274 94.2978 97.0838C94.2187 96.8343 94.2126 96.5848 94.2674 96.3352C94.3282 96.0857 94.4437 95.8659 94.6262 95.6758C94.8026 95.4857 95.0155 95.3491 95.271 95.2718L104.078 92.5865C104.334 92.5093 104.589 92.5033 104.845 92.5568C105.1 92.6162 105.331 92.7291 105.526 92.9073C105.714 93.0796 105.854 93.2935 105.933 93.5371C106.012 93.7806 106.019 94.0302 105.964 94.2856L103.963 102.953C103.926 103.256 103.798 103.524 103.586 103.744C103.306 104.035 102.971 104.189 102.564 104.207C102.162 104.225 101.81 104.1 101.511 103.839L101.493 103.827Z" fill="#31999A"/>
<path fill-rule="evenodd" clip-rule="evenodd" d="M88.4545 70.5581C94.7737 77.5511 93.6146 82.7797 90.3666 85.5486C83.3401 91.5177 77.7478 85.1944 75.2201 78.6522C72.9412 72.7346 71.2976 64.4859 69.4116 55.5934C67.231 45.3099 63.9895 29.2634 57.4476 17.0353C51.4296 5.81178 42.3142 -2.65578 28.7065 0.769879C18.7987 3.27473 10.515 11.2722 6.87402 19.3857C16.9652 9.40487 26.7551 4.45955 36.0604 7.4731C45.405 10.4931 50.133 18.3683 52.8179 27.1127C57.1529 41.2597 58.5936 61.6269 62.5685 76.0443C63.924 80.9832 66.1374 86.4758 69.6212 90.5841C85.7107 109.56 115.742 85.0528 96.3846 63.6359L90.4779 57.1001L97.1246 51.292C106.731 42.9017 107.609 28.3104 99.0695 18.8641C90.5369 9.42418 75.6981 8.55489 66.0916 16.9516L62.4179 20.1648C63.9437 23.5454 65.2468 27.0548 66.3928 30.635L73.1377 24.7431C78.3633 20.1777 86.4965 20.6477 91.1459 25.7927C95.7887 30.9312 95.3107 38.9287 90.085 43.4941L75.5082 56.2308L88.4545 70.5581Z" fill="#7CE396"/>
<path d="M16.6842 17.0419L7.85334 19.4289C7.6 19.4947 7.34665 19.4947 7.09331 19.4289C6.83996 19.3631 6.62281 19.2375 6.43581 19.058C6.24882 18.8725 6.12215 18.6572 6.04976 18.4059C5.98341 18.1546 5.98341 17.9034 6.04976 17.6521L8.3721 8.87565C8.43845 8.62438 8.56512 8.40901 8.75211 8.22355C8.93308 8.03809 9.15626 7.91245 9.40961 7.84066C9.66295 7.77485 9.9163 7.77485 10.1696 7.84066C10.423 7.90647 10.6401 8.0321 10.8271 8.21158L17.2332 14.5112C17.4744 14.7087 17.6373 14.9539 17.7157 15.2531C17.8183 15.636 17.77 16.0009 17.577 16.3479C17.3779 16.6949 17.0884 16.9222 16.7023 17.0299L16.6842 17.0419Z" fill="#7CE396"/>
</svg>
